<svg width="76" height="80" viewBox="0 0 76 80" fill="none" xmlns="http://www.w3.org/2000/svg">
<g filter="url(#filter0_dd_663_286)">
<path fill-rule="evenodd" clip-rule="evenodd" d="M38.0002 18.0081L19.607 28.148L38.0001 38.2878L56.3933 28.1479L38.0002 18.0081ZM18 50.9677L18 30.6877L36.5 40.8865V61.1663L18 50.9677ZM39.5 61.1666L58.0004 50.9677V30.6876L39.5 40.8866V61.1666ZM36.5799 15.3654C37.4636 14.8782 38.5369 14.8782 39.4206 15.3654L59.4874 26.4279L59.4876 26.4281C60.4171 26.9407 61.0004 27.9176 61.0004 28.9849V51.0167C61.0004 52.0839 60.4174 53.0606 59.4878 53.5734L59.4874 53.5736L39.4207 64.6359L39.4205 64.6361C38.5369 65.1233 37.4636 65.1233 36.5799 64.6361L36.5798 64.6359L16.5131 53.5736L16.5127 53.5734C15.5833 53.0606 15 52.0841 15 51.0167L15 28.9849C15 27.9178 15.583 26.9407 16.5131 26.4279L16.5131 26.4279L36.5799 15.3654L36.5799 15.3654Z" fill="url(#paint0_linear_663_286)"/>
</g>
<defs>
<filter id="filter0_dd_663_286" x="0" y="0" width="76.0005" height="80.0015" filterUnits="userSpaceOnUse" color-interpolation-filters="sRGB">
<feFlood flood-opacity="0" result="BackgroundImageFix"/>
<feColorMatrix in="SourceAlpha" type="matrix" values="0 0 0 0 0 0 0 0 0 0 0 0 0 0 0 0 0 0 127 0" result="hardAlpha"/>
<feOffset/>
<feGaussianBlur stdDeviation="7.5"/>
<feComposite in2="hardAlpha" operator="out"/>
<feColorMatrix type="matrix" values="0 0 0 0 0.92549 0 0 0 0 0.341176 0 0 0 0 0.160784 0 0 0 1 0"/>
<feBlend mode="normal" in2="BackgroundImageFix" result="effect1_dropShadow_663_286"/>
<feColorMatrix in="SourceAlpha" type="matrix" values="0 0 0 0 0 0 0 0 0 0 0 0 0 0 0 0 0 0 127 0" result="hardAlpha"/>
<feOffset/>
<feGaussianBlur stdDeviation="2"/>
<feComposite in2="hardAlpha" operator="out"/>
<feColorMatrix type="matrix" values="0 0 0 0 0.92549 0 0 0 0 0.341176 0 0 0 0 0.160784 0 0 0 1 0"/>
<feBlend mode="normal" in2="effect1_dropShadow_663_286" result="effect2_dropShadow_663_286"/>
<feBlend mode="normal" in="SourceGraphic" in2="effect2_dropShadow_663_286" result="shape"/>
</filter>
<linearGradient id="paint0_linear_663_286" x1="15" y1="40.0007" x2="61.0004" y2="40.0007" gradientUnits="userSpaceOnUse">
<stop stop-color="#EC5729"/>
<stop offset="1" stop-color="#F17027"/>
</linearGradient>
</defs>
</svg>
