<svg width="70" height="70" viewBox="0 0 70 70" fill="none" xmlns="http://www.w3.org/2000/svg">
<path d="M54.0518 13.8665C53.4976 14.4822 53.5474 15.4307 54.1632 15.9849C54.7789 16.5391 55.7273 16.4892 56.2816 15.8735L54.0518 13.8665ZM56.3182 15.8328C56.8724 15.217 56.8226 14.2686 56.2068 13.7144C55.5911 13.1602 54.6427 13.21 54.0884 13.8258L56.3182 15.8328ZM35 51.1667C43.9285 51.1667 51.1667 43.9285 51.1667 35H48.1667C48.1667 42.2716 42.2716 48.1667 35 48.1667V51.1667ZM51.1667 35C51.1667 26.0714 43.9285 18.8333 35 18.8333V21.8333C42.2716 21.8333 48.1667 27.7283 48.1667 35H51.1667ZM35 18.8333C26.0714 18.8333 18.8333 26.0714 18.8333 35H21.8333C21.8333 27.7282 27.7282 21.8333 35 21.8333V18.8333ZM18.8333 35C18.8333 43.9285 26.0714 51.1667 35 51.1667V48.1667C27.7283 48.1667 21.8333 42.2716 21.8333 35H18.8333ZM3.5 49.6667V20.3333H0.5V49.6667H3.5ZM3.5 20.3333C3.5 11.0366 11.0366 3.5 20.3333 3.5V0.5C9.3797 0.5 0.5 9.3797 0.5 20.3333H3.5ZM20.3333 3.5H49.6667V0.5H20.3333V3.5ZM49.6667 3.5C58.9634 3.5 66.5 11.0366 66.5 20.3333H69.5C69.5 9.3797 60.6202 0.5 49.6667 0.5V3.5ZM66.5 20.3333V49.6667H69.5V20.3333H66.5ZM66.5 49.6667C66.5 58.9634 58.9634 66.5 49.6667 66.5V69.5C60.6202 69.5 69.5 60.6202 69.5 49.6667H66.5ZM49.6667 66.5H20.3333V69.5H49.6667V66.5ZM20.3333 66.5C11.0366 66.5 3.5 58.9634 3.5 49.6667H0.5C0.5 60.6202 9.3797 69.5 20.3333 69.5V66.5ZM56.2816 15.8735L56.3182 15.8328L54.0884 13.8258L54.0518 13.8665L56.2816 15.8735Z" fill="#EC5729"/>
</svg>
