<svg width="37" height="24" viewBox="0 0 37 24" fill="none" xmlns="http://www.w3.org/2000/svg">
<path d="M14.8655 6.43908C14.3979 6.14517 13.7806 6.28596 13.4867 6.75354C13.1928 7.22113 13.3336 7.83844 13.8012 8.13235L14.8655 6.43908ZM21.8333 12L21.3012 12.8466C21.6265 13.0511 22.0402 13.0511 22.3655 12.8466L21.8333 12ZM29.8655 8.13235C30.3331 7.83844 30.4739 7.22113 30.18 6.75354C29.8861 6.28596 29.2687 6.14517 28.8012 6.43908L29.8655 8.13235ZM4.33333 13.3571C3.78105 13.3571 3.33333 13.8049 3.33333 14.3571C3.33333 14.9094 3.78105 15.3571 4.33333 15.3571V13.3571ZM7.66667 15.3571C8.21895 15.3571 8.66667 14.9094 8.66667 14.3571C8.66667 13.8049 8.21895 13.3571 7.66667 13.3571V15.3571ZM1 8.64286C0.447715 8.64286 0 9.09057 0 9.64286C0 10.1951 0.447715 10.6429 1 10.6429V8.64286ZM7.66667 10.6429C8.21895 10.6429 8.66667 10.1951 8.66667 9.64286C8.66667 9.09057 8.21895 8.64286 7.66667 8.64286V10.6429ZM6.66667 4.92857C6.66667 5.48086 7.11438 5.92857 7.66667 5.92857C8.21895 5.92857 8.66667 5.48086 8.66667 4.92857H6.66667ZM8.66667 19.0714C8.66667 18.5191 8.21895 18.0714 7.66667 18.0714C7.11438 18.0714 6.66667 18.5191 6.66667 19.0714H8.66667ZM13.8012 8.13235L21.3012 12.8466L22.3655 11.1534L14.8655 6.43908L13.8012 8.13235ZM22.3655 12.8466L29.8655 8.13235L28.8012 6.43908L21.3012 11.1534L22.3655 12.8466ZM4.33333 15.3571H7.66667V13.3571H4.33333V15.3571ZM1 10.6429H7.66667V8.64286H1V10.6429ZM8.66667 4.92857V4.14286H6.66667V4.92857H8.66667ZM8.66667 4.14286C8.66667 3.01401 9.65508 2 11 2V0C8.66302 0 6.66667 1.8002 6.66667 4.14286H8.66667ZM11 2H32.6667V0H11V2ZM32.6667 2C34.0116 2 35 3.014 35 4.14286H37C37 1.80021 35.0037 0 32.6667 0V2ZM35 4.14286V19.8571H37V4.14286H35ZM35 19.8571C35 20.986 34.0116 22 32.6667 22V24C35.0037 24 37 22.1998 37 19.8571H35ZM32.6667 22H11V24H32.6667V22ZM11 22C9.65507 22 8.66667 20.986 8.66667 19.8571H6.66667C6.66667 22.1999 8.66303 24 11 24V22ZM8.66667 19.8571V19.0714H6.66667V19.8571H8.66667Z" fill="#EC5729"/>
</svg>
