<svg width="74" height="54" viewBox="0 0 74 54" fill="none" xmlns="http://www.w3.org/2000/svg">
<path d="M44 27.0002L44.7476 28.3006C45.213 28.033 45.5 27.5371 45.5 27.0002C45.5 26.4633 45.213 25.9673 44.7476 25.6997L44 27.0002ZM31.75 34.0424H30.25C30.25 34.5778 30.5354 35.0726 30.9988 35.3407C31.4622 35.6088 32.0334 35.6096 32.4976 35.3428L31.75 34.0424ZM31.75 19.958L32.4976 18.6575C32.0334 18.3907 31.4622 18.3915 30.9988 18.6596C30.5354 18.9278 30.25 19.4226 30.25 19.958H31.75ZM5.16921 5.93666L4.09053 4.89434L4.09053 4.89434L5.16921 5.93666ZM23.3069 2.23095L23.2643 0.731556H23.2643L23.3069 2.23095ZM50.6931 2.23095L50.7357 0.731556L50.6931 2.23095ZM68.8307 48.0631L67.7521 47.0207L67.752 47.0207L68.8307 48.0631ZM50.6934 51.769L50.736 53.2684H50.7361L50.6934 51.769ZM23.3066 51.769L23.2639 53.2684H23.264L23.3066 51.769ZM5.16918 48.0631L6.24789 47.0207L6.24784 47.0207L5.16918 48.0631ZM43.2524 25.6997L31.0024 32.7419L32.4976 35.3428L44.7476 28.3006L43.2524 25.6997ZM33.25 34.0424V19.958H30.25V34.0424H33.25ZM31.0024 21.2584L43.2524 28.3006L44.7476 25.6997L32.4976 18.6575L31.0024 21.2584ZM3.5 29.4914V24.5086H0.5V29.4914H3.5ZM3.5 24.5086C3.5 19.3693 3.50315 15.6646 3.88288 12.8286C4.25655 10.0378 4.97173 8.29968 6.2479 6.97898L4.09053 4.89434C2.19748 6.85344 1.32806 9.30386 0.90942 12.4305C0.49685 15.5117 0.5 19.4532 0.5 24.5086H3.5ZM6.2479 6.97899C7.52621 5.65609 9.21462 4.89188 11.9306 4.44002C14.6965 3.97986 18.3173 3.87353 23.3496 3.73034L23.2643 0.731556C18.3176 0.872309 14.4542 0.978933 11.4383 1.4807C8.37243 1.99076 5.98147 2.93744 4.09053 4.89434L6.2479 6.97899ZM23.3496 3.73034C28.0717 3.59599 32.8861 3.5 37 3.5V0.5C32.8455 0.5 27.9994 0.59683 23.2643 0.731556L23.3496 3.73034ZM37 3.5C41.1139 3.5 45.9284 3.59599 50.6504 3.73034L50.7357 0.731556C46.0007 0.59683 41.1545 0.5 37 0.5V3.5ZM50.6504 3.73034C55.6826 3.87353 59.3035 3.97986 62.0693 4.44002C64.7853 4.89188 66.4738 5.65609 67.7521 6.97899L69.9094 4.89434C68.0185 2.93743 65.6275 1.99076 62.5617 1.4807C59.5457 0.978933 55.6824 0.872309 50.7357 0.731556L50.6504 3.73034ZM67.7521 6.97899C69.0283 8.29969 69.7434 10.0379 70.1171 12.8286C70.4968 15.6646 70.5 19.3693 70.5 24.5086H73.5C73.5 19.4532 73.5032 15.5117 73.0906 12.4305C72.6719 9.30385 71.8025 6.85344 69.9094 4.89434L67.7521 6.97899ZM70.5 24.5086V29.4914H73.5V24.5086H70.5ZM70.5 29.4914C70.5 34.6306 70.4968 38.3353 70.1171 41.1713C69.7434 43.962 69.0283 45.7001 67.7521 47.0207L69.9094 49.1054C71.8025 47.1464 72.6719 44.696 73.0906 41.5694C73.5032 38.4882 73.5 34.5468 73.5 29.4914H70.5ZM67.752 47.0207C66.4737 48.3437 64.7854 49.1079 62.0695 49.5598C59.3037 50.02 55.6829 50.1263 50.6507 50.2696L50.7361 53.2684C55.6827 53.1276 59.546 53.0209 62.5619 52.5191C65.6276 52.009 68.0185 51.0623 69.9094 49.1054L67.752 47.0207ZM50.6508 50.2696C45.9284 50.4039 41.1139 50.5 37 50.5V53.5C41.1545 53.5 46.0007 53.4031 50.736 53.2684L50.6508 50.2696ZM37 50.5C32.8861 50.5 28.0715 50.4039 23.3492 50.2696L23.264 53.2684C27.9992 53.4031 32.8455 53.5 37 53.5V50.5ZM23.3493 50.2696C18.3171 50.1263 14.6963 50.02 11.9305 49.5598C9.21456 49.1079 7.52618 48.3437 6.24789 47.0207L4.09047 49.1054C5.9814 51.0623 8.37232 52.009 11.4381 52.5191C14.454 53.0209 18.3173 53.1276 23.2639 53.2684L23.3493 50.2696ZM6.24784 47.0207C4.97172 45.7001 4.25654 43.962 3.88288 41.1713C3.50315 38.3353 3.5 34.6306 3.5 29.4914H0.5C0.5 34.5468 0.49685 38.4882 0.909415 41.5694C1.32805 44.696 2.19746 47.1464 4.09052 49.1054L6.24784 47.0207Z" fill="#EC5729"/>
</svg>
